<?xml version="1.0" encoding="iso-8859-1"?>
<!-- Generator: Adobe Illustrator 19.0.0, SVG Export Plug-In . SVG Version: 6.00 Build 0)  -->
<svg version="1.1" id="Capa_1" xmlns="http://www.w3.org/2000/svg" xmlns:xlink="http://www.w3.org/1999/xlink" x="0px" y="0px"
	 viewBox="0 0 512 512" style="enable-background:new 0 0 512 512;" xml:space="preserve">
<g>
	<g>
		<path d="M461.312,167.136L400,75.168V16c0-8.832-7.168-16-16-16H128c-8.832,0-16,7.168-16,16v59.136l-61.312,92
			C48.928,169.76,48,172.832,48,176v320c0,8.832,7.168,16,16,16h384c8.832,0,16-7.168,16-16V176
			C464,172.832,463.072,169.76,461.312,167.136z M93.888,160l42.656-64H354.08l-42.656,64H93.888z M432,480h-96V180.832l48-72l48,72
			V480z"/>
	</g>
</g>
<g>
</g>
<g>
</g>
<g>
</g>
<g>
</g>
<g>
</g>
<g>
</g>
<g>
</g>
<g>
</g>
<g>
</g>
<g>
</g>
<g>
</g>
<g>
</g>
<g>
</g>
<g>
</g>
<g>
</g>
</svg>
